<svg width="26" height="26" viewBox="0 0 26 26" fill="none" xmlns="http://www.w3.org/2000/svg">
<mask id="mask0" mask-type="alpha" maskUnits="userSpaceOnUse" x="0" y="0" width="26" height="26">
<rect width="26" height="26" fill="#C4C4C4"/>
</mask>
<g mask="url(#mask0)">
</g>
<path d="M26 0H0V26H26V0Z" fill="white" fill-opacity="0.01"/>
<path fill-rule="evenodd" clip-rule="evenodd" d="M9.74023 6.48317L17.2166 2.16669L19.715 6.49401L9.74023 6.48317Z" stroke="#A4ACB4" stroke-width="1.6875" stroke-linecap="round" stroke-linejoin="round"/>
<path d="M2.16699 7.58333C2.16699 6.98501 2.65202 6.5 3.25033 6.5H22.7503C23.3487 6.5 23.8337 6.98501 23.8337 7.58333V22.75C23.8337 23.3483 23.3487 23.8333 22.7503 23.8333H3.25033C2.65202 23.8333 2.16699 23.3483 2.16699 22.75V7.58333Z" stroke="#A4ACB4" stroke-width="1.6875" stroke-linejoin="round"/>
<path d="M19.0938 17.875H23.8333V12.4583H19.0938C17.5232 12.4583 16.25 13.6709 16.25 15.1666C16.25 16.6624 17.5232 17.875 19.0938 17.875Z" stroke="#A4ACB4" stroke-width="1.6875" stroke-linejoin="round"/>
<path d="M23.833 8.9375V21.9375" stroke="#A4ACB4" stroke-width="1.6875" stroke-linecap="round"/>
</svg>
