<svg width="26" height="26" viewBox="0 0 26 26" fill="none" xmlns="http://www.w3.org/2000/svg">
<mask id="mask0" mask-type="alpha" maskUnits="userSpaceOnUse" x="0" y="0" width="26" height="26">
<rect width="26" height="26" fill="#CCD1D6"/>
</mask>
<g mask="url(#mask0)">
<path d="M10.5554 4.44444C10.5554 5.79447 11.6499 6.88889 12.9999 6.88889C14.3499 6.88889 15.4443 5.79447 15.4443 4.44444C15.4443 3.09441 14.3499 2 12.9999 2C11.6499 2 10.5554 3.09441 10.5554 4.44444Z" stroke="#A4ACB4" stroke-width="1.625"/>
<path d="M19.1111 21.5556C19.1111 22.9056 20.2055 24 21.5556 24C22.9056 24 24 22.9056 24 21.5556C24 20.2056 22.9056 19.1111 21.5556 19.1111C20.2055 19.1111 19.1111 20.2056 19.1111 21.5556Z" stroke="#A4ACB4" stroke-width="1.625"/>
<path d="M10.5554 21.5556C10.5554 22.9056 11.6499 24 12.9999 24C14.3499 24 15.4443 22.9056 15.4443 21.5556C15.4443 20.2056 14.3499 19.1111 12.9999 19.1111C11.6499 19.1111 10.5554 20.2056 10.5554 21.5556Z" stroke="#A4ACB4" stroke-width="1.625"/>
<path d="M1.99978 21.5556C1.99978 22.9056 3.0942 24 4.44423 24C5.79426 24 6.88867 22.9056 6.88867 21.5556C6.88867 20.2056 5.79426 19.1111 4.44423 19.1111C3.0942 19.1111 1.99978 20.2056 1.99978 21.5556Z" stroke="#A4ACB4" stroke-width="1.625"/>
<path d="M4.44455 19.1111L4.44455 11.7778L21.5557 11.7778L21.5557 19.1111" stroke="#A4ACB4" stroke-width="1.625" stroke-linecap="round" stroke-linejoin="round"/>
<path d="M13 6.88885L13 19.1111" stroke="#A4ACB4" stroke-width="1.625" stroke-linecap="round" stroke-linejoin="round"/>
</g>
</svg>
