<svg width="26" height="26" viewBox="0 0 26 26" fill="none" xmlns="http://www.w3.org/2000/svg">
<mask id="mask0" mask-type="alpha" maskUnits="userSpaceOnUse" x="0" y="0" width="26" height="26">
<rect width="26" height="26" fill="#C4C4C4"/>
</mask>
<g mask="url(#mask0)">
</g>
<path d="M26 0H0V26H26V0Z" fill="white" fill-opacity="0.01"/>
<path d="M9.90405 23.3844C8.08887 22.844 6.47313 21.8406 5.19376 20.5112C5.67103 19.9456 5.95866 19.2147 5.95866 18.4167C5.95866 16.6217 4.50359 15.1667 2.70866 15.1667C2.60008 15.1667 2.49275 15.172 2.3869 15.1824C2.24271 14.4774 2.16699 13.7475 2.16699 13C2.16699 11.8676 2.34074 10.7757 2.66305 9.74966C2.67822 9.74988 2.69343 9.74999 2.70866 9.74999C4.50359 9.74999 5.95866 8.29491 5.95866 6.49999C5.95866 5.9847 5.83873 5.49742 5.62532 5.06456C6.87814 3.89964 8.40726 3.02785 10.1035 2.55829C10.641 3.61186 11.7365 4.33332 13.0003 4.33332C14.2642 4.33332 15.3596 3.61186 15.8971 2.55829C17.5934 3.02785 19.1225 3.89964 20.3753 5.06456C20.1619 5.49742 20.042 5.9847 20.042 6.49999C20.042 8.29491 21.4971 9.74999 23.292 9.74999C23.3072 9.74999 23.3224 9.74988 23.3376 9.74966C23.6599 10.7757 23.8337 11.8676 23.8337 13C23.8337 13.7475 23.7579 14.4774 23.6137 15.1824C23.5079 15.172 23.4006 15.1667 23.292 15.1667C21.4971 15.1667 20.042 16.6217 20.042 18.4167C20.042 19.2147 20.3296 19.9456 20.8069 20.5112C19.5275 21.8406 17.9118 22.844 16.0966 23.3844C15.6777 22.0739 14.4498 21.125 13.0003 21.125C11.5508 21.125 10.323 22.0739 9.90405 23.3844Z" stroke="#A4ACB4" stroke-width="1.625" stroke-linejoin="round"/>
<path d="M12.9997 16.7917C15.0938 16.7917 16.7913 15.0941 16.7913 13C16.7913 10.9059 15.0938 9.20834 12.9997 9.20834C10.9056 9.20834 9.20801 10.9059 9.20801 13C9.20801 15.0941 10.9056 16.7917 12.9997 16.7917Z" stroke="#A4ACB4" stroke-width="1.625" stroke-linejoin="round"/>
</svg>
